<mxfile host="app.diagrams.net" modified="2022-03-20T12:47:40.493Z" agent="5.0 (Macintosh; Intel Mac OS X 10_14_2) AppleWebKit/537.36 (KHTML, like Gecko) Chrome/99.0.4844.51 Safari/537.36" etag="ZTA9ZjNAW4g_7NV_Cqyk" version="17.1.2" type="github">
  <diagram name="Page-1" id="d9b1e647-80fa-b4a2-5024-87a742678bcc">
    <mxGraphModel dx="2992" dy="1066" grid="1" gridSize="10" guides="1" tooltips="1" connect="1" arrows="1" fold="1" page="1" pageScale="1" pageWidth="1100" pageHeight="850" background="none" math="0" shadow="0">
      <root>
        <mxCell id="0" />
        <mxCell id="1" parent="0" />
        <mxCell id="-ItOUZE-uVXcDvyL4rD7-2" value="WebView&lt;br&gt;初始化" style="shape=step;whiteSpace=wrap;html=1;fontSize=28;fillColor=#d5e8d4;strokeColor=#82b366;" vertex="1" parent="1">
          <mxGeometry x="90" y="180" width="170" height="80" as="geometry" />
        </mxCell>
        <mxCell id="-ItOUZE-uVXcDvyL4rD7-3" value="LoadUrl" style="shape=step;whiteSpace=wrap;html=1;fontSize=28;fillColor=#d5e8d4;strokeColor=#82b366;" vertex="1" parent="1">
          <mxGeometry x="240" y="180" width="170" height="80" as="geometry" />
        </mxCell>
        <mxCell id="-ItOUZE-uVXcDvyL4rD7-4" value="DNS" style="shape=step;whiteSpace=wrap;html=1;fontSize=28;fillColor=#0067CC;fontColor=#FFFFFF;strokeColor=none;" vertex="1" parent="1">
          <mxGeometry x="390" y="180" width="170" height="80" as="geometry" />
        </mxCell>
        <mxCell id="-ItOUZE-uVXcDvyL4rD7-5" value="TCP" style="shape=step;whiteSpace=wrap;html=1;fontSize=28;fillColor=#0062C4;fontColor=#FFFFFF;strokeColor=none;" vertex="1" parent="1">
          <mxGeometry x="540" y="180" width="170" height="80" as="geometry" />
        </mxCell>
        <mxCell id="-ItOUZE-uVXcDvyL4rD7-6" value="资源请求" style="shape=step;whiteSpace=wrap;html=1;fontSize=28;fillColor=#0062C4;fontColor=#FFFFFF;strokeColor=none;" vertex="1" parent="1">
          <mxGeometry x="690" y="180" width="170" height="80" as="geometry" />
        </mxCell>
        <mxCell id="-ItOUZE-uVXcDvyL4rD7-7" value="解析" style="shape=step;whiteSpace=wrap;html=1;fontSize=28;fillColor=#f8cecc;strokeColor=#b85450;" vertex="1" parent="1">
          <mxGeometry x="850" y="180" width="170" height="80" as="geometry" />
        </mxCell>
        <mxCell id="-ItOUZE-uVXcDvyL4rD7-8" value="布局" style="shape=step;whiteSpace=wrap;html=1;fontSize=28;fillColor=#f8cecc;strokeColor=#b85450;" vertex="1" parent="1">
          <mxGeometry x="1010" y="180" width="170" height="80" as="geometry" />
        </mxCell>
        <mxCell id="-ItOUZE-uVXcDvyL4rD7-9" value="渲染" style="shape=step;whiteSpace=wrap;html=1;fontSize=28;fillColor=#f8cecc;strokeColor=#b85450;" vertex="1" parent="1">
          <mxGeometry x="1170" y="180" width="170" height="80" as="geometry" />
        </mxCell>
        <mxCell id="-ItOUZE-uVXcDvyL4rD7-10" value="" style="endArrow=none;dashed=1;html=1;rounded=0;entryX=0.011;entryY=0.043;entryDx=0;entryDy=0;entryPerimeter=0;fillColor=#dae8fc;strokeColor=#6c8ebf;strokeWidth=3;" edge="1" parent="1">
          <mxGeometry width="50" height="50" relative="1" as="geometry">
            <mxPoint x="-78" y="560" as="sourcePoint" />
            <mxPoint x="-78.13000000000011" y="183.44000000000005" as="targetPoint" />
          </mxGeometry>
        </mxCell>
        <mxCell id="-ItOUZE-uVXcDvyL4rD7-11" value="" style="endArrow=none;dashed=1;html=1;rounded=0;strokeWidth=3;entryX=0.011;entryY=1.007;entryDx=0;entryDy=0;entryPerimeter=0;fillColor=#dae8fc;strokeColor=#6c8ebf;" edge="1" parent="1" target="-ItOUZE-uVXcDvyL4rD7-4">
          <mxGeometry width="50" height="50" relative="1" as="geometry">
            <mxPoint x="392" y="480" as="sourcePoint" />
            <mxPoint x="390" y="320" as="targetPoint" />
          </mxGeometry>
        </mxCell>
        <mxCell id="-ItOUZE-uVXcDvyL4rD7-12" value="" style="endArrow=none;dashed=1;html=1;rounded=0;strokeWidth=3;fillColor=#dae8fc;strokeColor=#6c8ebf;" edge="1" parent="1">
          <mxGeometry width="50" height="50" relative="1" as="geometry">
            <mxPoint x="-80" y="480" as="sourcePoint" />
            <mxPoint x="390" y="480" as="targetPoint" />
          </mxGeometry>
        </mxCell>
        <mxCell id="-ItOUZE-uVXcDvyL4rD7-13" value="&lt;font style=&quot;font-size: 26px&quot;&gt;Native&lt;br&gt;耗时&lt;/font&gt;" style="rounded=0;whiteSpace=wrap;html=1;fillColor=#d5e8d4;strokeColor=#82b366;" vertex="1" parent="1">
          <mxGeometry x="100" y="440" width="140" height="80" as="geometry" />
        </mxCell>
        <mxCell id="-ItOUZE-uVXcDvyL4rD7-14" value="" style="endArrow=none;dashed=1;html=1;rounded=0;fontSize=26;strokeWidth=3;entryX=0.818;entryY=1.043;entryDx=0;entryDy=0;entryPerimeter=0;fillColor=#dae8fc;strokeColor=#6c8ebf;" edge="1" parent="1">
          <mxGeometry width="50" height="50" relative="1" as="geometry">
            <mxPoint x="839" y="430" as="sourcePoint" />
            <mxPoint x="839.29" y="243.44000000000005" as="targetPoint" />
          </mxGeometry>
        </mxCell>
        <mxCell id="-ItOUZE-uVXcDvyL4rD7-15" value="" style="endArrow=none;dashed=1;html=1;rounded=0;fontSize=26;strokeWidth=3;entryX=0.818;entryY=1.043;entryDx=0;entryDy=0;entryPerimeter=0;fillColor=#dae8fc;strokeColor=#6c8ebf;" edge="1" parent="1">
          <mxGeometry width="50" height="50" relative="1" as="geometry">
            <mxPoint x="1590" y="560" as="sourcePoint" />
            <mxPoint x="1590" y="260" as="targetPoint" />
          </mxGeometry>
        </mxCell>
        <mxCell id="-ItOUZE-uVXcDvyL4rD7-16" value="" style="endArrow=none;dashed=1;html=1;rounded=0;fontSize=26;strokeWidth=3;fillColor=#dae8fc;strokeColor=#6c8ebf;startArrow=none;" edge="1" parent="1" source="-ItOUZE-uVXcDvyL4rD7-17">
          <mxGeometry width="50" height="50" relative="1" as="geometry">
            <mxPoint x="400" y="430" as="sourcePoint" />
            <mxPoint x="830" y="430" as="targetPoint" />
          </mxGeometry>
        </mxCell>
        <mxCell id="-ItOUZE-uVXcDvyL4rD7-18" value="" style="endArrow=none;dashed=1;html=1;rounded=0;fontSize=26;fontColor=#FFFFFF;strokeWidth=3;fillColor=#dae8fc;strokeColor=#6c8ebf;" edge="1" parent="1">
          <mxGeometry width="50" height="50" relative="1" as="geometry">
            <mxPoint x="840" y="380" as="sourcePoint" />
            <mxPoint x="1590" y="380" as="targetPoint" />
          </mxGeometry>
        </mxCell>
        <mxCell id="-ItOUZE-uVXcDvyL4rD7-19" value="渲染耗时" style="rounded=0;whiteSpace=wrap;html=1;fontSize=26;fillColor=#f8cecc;strokeColor=#b85450;" vertex="1" parent="1">
          <mxGeometry x="1140" y="350" width="120" height="60" as="geometry" />
        </mxCell>
        <mxCell id="-ItOUZE-uVXcDvyL4rD7-20" value="" style="endArrow=none;dashed=1;html=1;rounded=0;fontSize=26;fontColor=#FFFFFF;strokeWidth=3;fillColor=#dae8fc;strokeColor=#6c8ebf;" edge="1" parent="1">
          <mxGeometry width="50" height="50" relative="1" as="geometry">
            <mxPoint x="-70" y="560" as="sourcePoint" />
            <mxPoint x="1580" y="560" as="targetPoint" />
          </mxGeometry>
        </mxCell>
        <mxCell id="-ItOUZE-uVXcDvyL4rD7-21" value="总耗时" style="rounded=0;whiteSpace=wrap;html=1;fontSize=26;fillColor=#fff2cc;strokeColor=#d6b656;" vertex="1" parent="1">
          <mxGeometry x="780" y="530" width="120" height="60" as="geometry" />
        </mxCell>
        <mxCell id="-ItOUZE-uVXcDvyL4rD7-22" value="接口请求" style="shape=step;whiteSpace=wrap;html=1;fontSize=28;fillColor=#0062C4;fontColor=#FFFFFF;strokeColor=none;" vertex="1" parent="1">
          <mxGeometry x="1330" y="120" width="170" height="80" as="geometry" />
        </mxCell>
        <mxCell id="-ItOUZE-uVXcDvyL4rD7-23" value="FMP" style="shape=step;whiteSpace=wrap;html=1;fontSize=28;fillColor=#f8cecc;strokeColor=#b85450;" vertex="1" parent="1">
          <mxGeometry x="1490" y="180" width="170" height="80" as="geometry" />
        </mxCell>
        <mxCell id="-ItOUZE-uVXcDvyL4rD7-24" value="预请求数据" style="shape=step;whiteSpace=wrap;html=1;fontSize=28;fillColor=#e1d5e7;strokeColor=#9673a6;strokeWidth=2;" vertex="1" parent="1">
          <mxGeometry x="-80" y="180" width="170" height="80" as="geometry" />
        </mxCell>
        <mxCell id="-ItOUZE-uVXcDvyL4rD7-17" value="&lt;font color=&quot;#ffffff&quot;&gt;网络耗时&lt;/font&gt;" style="rounded=0;whiteSpace=wrap;html=1;fontSize=26;fillColor=#0062C4;" vertex="1" parent="1">
          <mxGeometry x="550" y="400" width="120" height="60" as="geometry" />
        </mxCell>
        <mxCell id="-ItOUZE-uVXcDvyL4rD7-25" value="" style="endArrow=none;dashed=1;html=1;rounded=0;fontSize=26;strokeWidth=3;fillColor=#dae8fc;strokeColor=#6c8ebf;" edge="1" parent="1" target="-ItOUZE-uVXcDvyL4rD7-17">
          <mxGeometry width="50" height="50" relative="1" as="geometry">
            <mxPoint x="400" y="430" as="sourcePoint" />
            <mxPoint x="830" y="430" as="targetPoint" />
          </mxGeometry>
        </mxCell>
        <mxCell id="-ItOUZE-uVXcDvyL4rD7-26" value="nativeAPI&lt;br&gt;请求" style="shape=step;whiteSpace=wrap;html=1;fontSize=28;fillColor=#e1d5e7;strokeColor=#9673a6;strokeWidth=2;" vertex="1" parent="1">
          <mxGeometry x="1330" y="230" width="170" height="80" as="geometry" />
        </mxCell>
      </root>
    </mxGraphModel>
  </diagram>
</mxfile>
